<svg xmlns="http://www.w3.org/2000/svg" viewBox="0 0 145.49 145.49"><defs><style>.cls-1{fill:#2b2054;}.cls-2{fill:#8cc63f;}.cls-3{fill:#62c765;}.cls-4{fill:#55b034;}.cls-5{fill:#c2e070;}.cls-6{fill:#269468;}.cls-7{fill:#69c97d;}.cls-8{fill:#e2ed7a;}.cls-9{fill:#fff;}</style></defs><title>crystal</title><g id="background"><rect class="cls-1" x="-379.07" y="-211.6" width="1437.37" height="577.88"/></g><g id="objects"><path class="cls-2" d="M75.59,15.88a3.77,3.77,0,0,0-5.69,0L40.44,48.46a12.77,12.77,0,0,0-2.85,7.39V89.64A12.77,12.77,0,0,0,40.44,97L69.9,129.61a3.77,3.77,0,0,0,5.69,0L105.05,97a12.78,12.78,0,0,0,2.84-7.39V55.85a12.78,12.78,0,0,0-2.84-7.39Z"/><path class="cls-3" d="M39.63,49.56a13,13,0,0,0-2,6.29V89.64A12.77,12.77,0,0,0,40.44,97l1.19,1.31c8.17-3.49,17.19-7.46,18.11-7.81,1.71-.65,0-31.6,0-31.6Z"/><path class="cls-4" d="M40.44,48.46a11.68,11.68,0,0,0-2.08,3.68l20.38,7.58,14-17.61V14.58a3.83,3.83,0,0,0-2.85,1.3Z"/><path class="cls-5" d="M87,59.72l20.17-7.58a11.67,11.67,0,0,0-2.08-3.68L75.59,15.88a3.82,3.82,0,0,0-2.84-1.3V42.11Z"/><path class="cls-6" d="M58.47,85.8l-20,7.87a11.37,11.37,0,0,0,2,3.36L69.9,129.61a3.82,3.82,0,0,0,2.85,1.3V103.76Z"/><path class="cls-7" d="M105.05,97a11.4,11.4,0,0,0,2-3.36L87,85.8l-14.28,18v27.15a3.82,3.82,0,0,0,2.84-1.3Z"/><polygon class="cls-8" points="54.56 87.35 54.56 58.14 72.75 38.03 90.93 58.14 90.93 87.35 72.75 107.46 54.56 87.35"/><path class="cls-9" d="M54.56,76.61l32.09-23.2,4.28,4.73v5.78L56.13,89.08l-1.57-1.73Zm36.37-.43V70.94L60,93.33l2.86,3.17Z"/><path class="cls-9" d="M64.21,45.42c-4.66,1.51-5.88,2.74-7.39,7.4-1.51-4.66-2.74-5.88-7.4-7.4,4.66-1.51,5.88-2.73,7.39-7.39C58.32,42.69,59.55,43.91,64.21,45.42Z"/><path class="cls-9" d="M49.42,54.72c-2.53.82-3.19,1.49-4,4-.82-2.53-1.49-3.19-4-4,2.53-.82,3.2-1.48,4-4C46.22,53.24,46.89,53.91,49.42,54.72Z"/></g></svg>