<svg xmlns="http://www.w3.org/2000/svg" viewBox="0 0 145.49 145.49"><defs><style>.cls-1{fill:#2b2054;}.cls-2{fill:#ffc551;}.cls-3{fill:#ed861f;}.cls-3,.cls-4{opacity:0.5;}.cls-4{fill:#c62100;}.cls-5{fill:#fce221;}.cls-6{fill:#fff;}</style></defs><title>crystal</title><g id="background"><rect class="cls-1" x="-557.56" y="-211.6" width="1437.37" height="577.88"/></g><g id="objects"><path class="cls-2" d="M16.28,124.83c-2.86,0-4-2-2.6-4.51L70.15,22.52c1.43-2.48,3.77-2.48,5.2,0l56.47,97.81c1.43,2.48.26,4.51-2.6,4.51Z"/><path class="cls-3" d="M72.75,67.46V20.66a3.16,3.16,0,0,0-2.6,1.86L41.91,71.42l-28.23,48.9a3.16,3.16,0,0,0-.31,3.18l30.15-17.4Z"/><path class="cls-4" d="M102,106.1l-48.09-6-40.53,23.4a3.16,3.16,0,0,0,2.91,1.32h113a3.15,3.15,0,0,0,2.89-1.32Z"/><polygon class="cls-5" points="43.51 106.11 72.75 55.47 101.98 106.11 43.51 106.11"/><polygon class="cls-6" points="89.6 84.66 82.8 72.89 48.28 97.84 43.51 106.11 59.94 106.11 89.6 84.66"/><polygon class="cls-6" points="95.72 95.27 93.11 90.74 71.85 106.11 80.73 106.11 95.72 95.27"/><path class="cls-6" d="M45.87,75.31c-4.66,1.52-5.88,2.74-7.39,7.4-1.51-4.66-2.74-5.88-7.4-7.39,4.66-1.51,5.89-2.73,7.4-7.39C40,72.58,41.21,73.8,45.87,75.31Z"/><path class="cls-6" d="M51.54,88.33c-2.53.82-3.19,1.49-4,4-.82-2.53-1.49-3.19-4-4,2.53-.82,3.19-1.48,4-4C48.35,86.85,49,87.51,51.54,88.33Z"/><path class="cls-6" d="M66.56,114.79c-2.53.82-3.19,1.49-4,4-.82-2.53-1.49-3.19-4-4,2.53-.82,3.19-1.48,4-4C63.36,113.3,64,114,66.56,114.79Z"/></g></svg>