<svg xmlns="http://www.w3.org/2000/svg" viewBox="0 0 145.49 145.49"><defs><style>.cls-1{isolation:isolate;}.cls-2{fill:#2b2054;}.cls-3{fill:#ffb0d0;}.cls-4{fill:#fef8a6;mix-blend-mode:overlay;}.cls-5{fill:#ed5f91;}.cls-6{fill:#ff82af;}.cls-7{fill:#dc4b7f;}.cls-8{fill:#0074c2;fill-opacity:0.1;}.cls-9{fill:#ed5a9f;}.cls-10{fill:#ff7ab1;}.cls-11{fill:#fff;}</style></defs><title>crystal</title><g class="cls-1"><g id="background"><rect class="cls-2" x="-915.3" y="-211.6" width="1437.37" height="577.88"/></g><g id="objects"><path class="cls-3" d="M116.38,30.86a9.13,9.13,0,0,0-7.48-4.67H36.6a9.13,9.13,0,0,0-7.48,4.67L15.7,58.35a7.74,7.74,0,0,0,1.42,8.32L69,117.8a5.32,5.32,0,0,0,7.41,0l51.92-51.12a7.74,7.74,0,0,0,1.42-8.32Z"/><path class="cls-4" d="M103.06,39.9c-3.22-3-6.44-6.05-9.75-9l-.42-.37L40.79,68.23l7.92,11Z"/><path class="cls-4" d="M111.81,48.09c-1.2-1.1-2.38-2.21-3.57-3.32L47.61,88.6l3,4.21,61.46-44.43Z"/><path class="cls-5" d="M130.07,63.74a7.56,7.56,0,0,0-.28-5.39L116.38,30.86a8.44,8.44,0,0,0-3.07-3.25L101.14,62.86Z"/><path class="cls-5" d="M44.35,62.86l28.4-36.67H36.6A8.61,8.61,0,0,0,32,27.78Z"/><path class="cls-6" d="M113.54,27.78a8.6,8.6,0,0,0-4.64-1.59H72.75l28.4,36.67Z"/><path class="cls-7" d="M32.11,27.66a8.4,8.4,0,0,0-3,3.2L15.7,58.35a7.39,7.39,0,0,0-.44,4.72l29.45.78Z"/><path class="cls-8" d="M32.11,27.66a8.4,8.4,0,0,0-3,3.2L15.7,58.35a7.39,7.39,0,0,0-.44,4.72l29.45.78Z"/><path class="cls-9" d="M17.12,66.67,69,117.8a5.24,5.24,0,0,0,2.61,1.38L44.35,62.86H15.21A7.26,7.26,0,0,0,17.12,66.67Z"/><path class="cls-7" d="M73.84,119.18a5.24,5.24,0,0,0,2.61-1.38l51.92-51.12a7.25,7.25,0,0,0,1.91-3.82H101.14Z"/><path class="cls-8" d="M73.84,119.18a5.24,5.24,0,0,0,2.61-1.38l51.92-51.12a7.25,7.25,0,0,0,1.91-3.82H101.14Z"/><path class="cls-10" d="M44.35,62.86l27.3,56.32a5.41,5.41,0,0,0,2.2,0l27.3-56.32Z"/><path class="cls-11" d="M46.28,46.36c-5.05,1.64-6.38,3-8,8-1.64-5.05-3-6.38-8-8,5.05-1.64,6.38-3,8-8C39.9,43.4,41.23,44.72,46.28,46.36Z"/><path class="cls-11" d="M60,34.91c-2.74.89-3.46,1.61-4.35,4.35-.89-2.74-1.61-3.46-4.36-4.35,2.74-.89,3.46-1.61,4.35-4.35C56.55,33.3,57.27,34,60,34.91Z"/><path class="cls-11" d="M62.09,85.65c-2.74.89-3.46,1.61-4.35,4.36-.89-2.74-1.61-3.46-4.36-4.35,2.74-.89,3.46-1.61,4.35-4.35C58.62,84,59.34,84.77,62.09,85.65Z"/></g></g></svg>