<svg xmlns="http://www.w3.org/2000/svg" viewBox="0 0 145.49 145.49"><defs><style>.cls-1{fill:#2b2054;}.cls-2{fill:#79e8dd;}.cls-3{fill:#55abe0;}.cls-4{fill:#4ba6eb;}.cls-5{fill:#6cd9ff;}.cls-6{fill:#cafdff;}.cls-7{fill:#87dcff;}.cls-8{fill:#328cc4;}.cls-9{fill:#64e8db;}.cls-10{fill:#99fff7;}.cls-11{fill:#fff;}</style></defs><title>crystal</title><g id="background"><rect class="cls-1" x="-733.05" y="-211.6" width="1437.37" height="577.88"/></g><g id="objects"><path class="cls-2" d="M59.93,43.12H85l8.46-20.3A10.33,10.33,0,0,0,89.67,22H55.82a10.27,10.27,0,0,0-3.76.85Z"/><path class="cls-3" d="M43.48,60.61l17-17.23L52.06,22.81a10.28,10.28,0,0,0-3.26,2.05L24.87,48.8a10.32,10.32,0,0,0-2.05,3.26Z"/><path class="cls-4" d="M22.81,93.43a10.39,10.39,0,0,0,2,3.25l23.95,23.95a10.39,10.39,0,0,0,3.25,2L60.22,103,42.52,85.27Z"/><path class="cls-5" d="M102.59,59.84l-.2,26,20.29,7.58a10.34,10.34,0,0,0,.85-3.76V55.82a10.33,10.33,0,0,0-.85-3.76Z"/><path class="cls-6" d="M85,42.52l18,17.71,19.7-8.16a10.31,10.31,0,0,0-2.05-3.26L96.69,24.87a10.35,10.35,0,0,0-3.26-2.05Z"/><path class="cls-7" d="M22,55.81V89.68a10.33,10.33,0,0,0,.85,3.74l19.7-8.16v-25l-19.7-8.16A10.35,10.35,0,0,0,22,55.81Z"/><path class="cls-8" d="M55.81,123.53H89.68a10.39,10.39,0,0,0,3.75-.85L84.78,102H60.71l-8.65,20.71A10.38,10.38,0,0,0,55.81,123.53Z"/><path class="cls-9" d="M102.38,85,84.78,102l8.65,20.71a10.35,10.35,0,0,0,3.26-2.05l23.94-23.94a10.31,10.31,0,0,0,2.05-3.26Z"/><polygon class="cls-10" points="60.23 102.97 42.52 85.27 42.52 60.23 60.23 42.52 85.27 42.52 102.97 60.23 102.97 85.27 85.27 102.97 60.23 102.97"/><polygon class="cls-11" points="55.26 98.01 102.97 63.51 102.97 60.23 95.19 52.44 45.57 88.32 55.26 98.01"/><polygon class="cls-11" points="102.97 78.54 102.97 72.12 60.29 102.97 69.17 102.97 102.97 78.54"/><path class="cls-11" d="M45.68,48.91c-4.66,1.52-5.88,2.74-7.39,7.4-1.51-4.66-2.74-5.88-7.4-7.39,4.66-1.51,5.88-2.73,7.4-7.39C39.8,46.18,41,47.4,45.68,48.91Z"/><path class="cls-11" d="M36.25,66.07c-2.53.82-3.19,1.49-4,4-.82-2.53-1.49-3.19-4-4,2.53-.82,3.19-1.48,4-4C33.06,64.59,33.72,65.25,36.25,66.07Z"/><path class="cls-11" d="M113,95.2c-2.53.82-3.2,1.49-4,4-.82-2.53-1.49-3.2-4-4,2.53-.82,3.2-1.48,4-4C109.77,93.72,110.43,94.38,113,95.2Z"/></g></svg>